<?xml version="1.0" standalone="no"?><!DOCTYPE svg PUBLIC "-//W3C//DTD SVG 1.1//EN" "http://www.w3.org/Graphics/SVG/1.1/DTD/svg11.dtd"><svg t="1676005711040" class="icon" viewBox="0 0 1024 1024" version="1.1" xmlns="http://www.w3.org/2000/svg" p-id="13319" xmlns:xlink="http://www.w3.org/1999/xlink" width="128" height="128"><path d="M758.613333 407.608889a31.857778 31.857778 0 0 0-44.942222 0l-201.671111 199.111111-201.671111-199.111111a31.857778 31.857778 0 0 0-44.942222 0 31.004444 31.004444 0 0 0 0 44.373333l221.297777 217.884445a28.444444 28.444444 0 0 0 2.275556 3.413333 33.848889 33.848889 0 0 0 46.08 0 28.444444 28.444444 0 0 0 2.275556-3.413333l221.297777-217.884445a31.004444 31.004444 0 0 0 0-44.373333z" p-id="13320" fill="#ffffff"></path><path d="M512 56.888889A455.111111 455.111111 0 1 1 56.888889 512 455.111111 455.111111 0 0 1 512 56.888889m0-56.888889a512 512 0 1 0 512 512A512 512 0 0 0 512 0z" p-id="13321" fill="#ffffff"></path></svg>