<svg xmlns="http://www.w3.org/2000/svg" viewBox="0 0 292.55 68.16"><defs><style>.cls-1{fill:#fff;}</style></defs><title>资源 2</title><g id="图层_2" data-name="图层 2"><g id="图层_1-2" data-name="图层 1"><polygon class="cls-1" points="52.38 24.95 38.01 49.89 28.75 65.96 0 65.96 23.63 24.95 38.01 0 52.38 24.95"/><polygon class="cls-1" points="65.22 47.23 36.47 47.23 32.99 41.18 61.74 41.18 65.22 47.23"/><polygon class="cls-1" points="70.61 56.58 41.86 56.58 38.39 50.55 67.13 50.55 70.61 56.58"/><polygon class="cls-1" points="76 65.96 47.26 65.96 43.79 59.93 72.53 59.93 76 65.96"/><path class="cls-1" d="M261.28,23.65H250.53A4.53,4.53,0,0,1,246,19.12V15a4.53,4.53,0,0,1,4.53-4.53h10.75A4.54,4.54,0,0,1,265.82,15v4.14A4.54,4.54,0,0,1,261.28,23.65Zm-10.75-9a.38.38,0,0,0-.37.38v4.14a.38.38,0,0,0,.37.38h10.75a.38.38,0,0,0,.38-.38V15a.38.38,0,0,0-.38-.38Z"/><path class="cls-1" d="M288,23.65H277.27a4.54,4.54,0,0,1-4.54-4.53V15a4.54,4.54,0,0,1,4.54-4.53H288A4.53,4.53,0,0,1,292.55,15v4.14A4.53,4.53,0,0,1,288,23.65Zm-10.75-9a.38.38,0,0,0-.38.38v4.14a.38.38,0,0,0,.38.38H288a.38.38,0,0,0,.37-.38V15a.38.38,0,0,0-.37-.38Z"/><path class="cls-1" d="M261.28,52.66H250.53A4.53,4.53,0,0,1,246,48.13V44a4.54,4.54,0,0,1,4.53-4.54h10.75A4.55,4.55,0,0,1,265.82,44v4.14A4.54,4.54,0,0,1,261.28,52.66Zm-10.75-9a.38.38,0,0,0-.37.38v4.14a.38.38,0,0,0,.37.37h10.75a.38.38,0,0,0,.38-.37V44a.38.38,0,0,0-.38-.38Z"/><path class="cls-1" d="M288,52.66H277.27a4.54,4.54,0,0,1-4.54-4.53V44a4.55,4.55,0,0,1,4.54-4.54H288A4.54,4.54,0,0,1,292.55,44v4.14A4.53,4.53,0,0,1,288,52.66Zm-10.75-9a.38.38,0,0,0-.38.38v4.14a.38.38,0,0,0,.38.37H288a.38.38,0,0,0,.37-.37V44a.38.38,0,0,0-.37-.38Z"/><path class="cls-1" d="M287.23,30.84H246V26.69h41.23c.69,0,1.16-.44,1.16-.83v-1h4.16v1A5.16,5.16,0,0,1,287.23,30.84Z"/><path class="cls-1" d="M256.43,37.78H246V33.62h10.43c6,0,10.77-3.95,10.77-9V23.38h4.15v1.25C271.35,32,264.8,37.78,256.43,37.78Z"/><path class="cls-1" d="M292.55,37.78H282.12c-8.37,0-14.92-5.78-14.92-13.15V23.38h4.15v1.25c0,5,4.73,9,10.77,9h10.43Z"/><rect class="cls-1" x="197.71" y="22.59" width="4.16" height="30.07"/><path class="cls-1" d="M204.16,12.45a19.81,19.81,0,0,1-8.76,17.28l-1.71,1.17v-5A15.78,15.78,0,0,0,200,12.61V10.45h4.07Z"/><path class="cls-1" d="M180.26,16.91H141.52V12.75h38.74a.48.48,0,0,0,.35-.13V10.54l4.14-.09v2.08A4.4,4.4,0,0,1,180.26,16.91Z"/><rect class="cls-1" x="140.36" y="25.96" width="45.55" height="4.16"/><rect class="cls-1" x="161.06" y="12.75" width="4.16" height="39.91"/><path class="cls-1" d="M140.36,48.51v4.15A11,11,0,0,0,149,41.94V33.6h-4.16v8.34A7.07,7.07,0,0,1,140.36,48.51Z"/><path class="cls-1" d="M185.91,48.51v4.15a11,11,0,0,1-8.61-10.72V33.6h4.16v8.34A7.07,7.07,0,0,0,185.91,48.51Z"/><rect class="cls-1" x="108.8" y="10.41" width="4.16" height="6.46"/><path class="cls-1" d="M133.34,21.21h-4.15V18.14a1.52,1.52,0,0,0-1.66-1.27H92.61A1.52,1.52,0,0,0,91,18.14v3.07H86.79V18.14a5.64,5.64,0,0,1,5.82-5.43h34.92a5.63,5.63,0,0,1,5.81,5.43Z"/><rect class="cls-1" x="86.79" y="25.92" width="46.55" height="4.16"/><path class="cls-1" d="M129.41,48.55h3.93V52.7h-3.2C111.76,52.7,91.65,42,91.65,26.79v-3H95.8v3C95.8,38.24,113.88,48.55,129.41,48.55Z"/><path class="cls-1" d="M90.73,48.55H86.79V52.7H90c18.38,0,38.48-10.67,38.48-25.91v-3h-4.15v3C124.33,38.24,106.25,48.55,90.73,48.55Z"/><path class="cls-1" d="M238.93,48v4.38a49.25,49.25,0,0,1-16.53-9.49c-1.12-.95-2.2-1.95-3.21-3h0c-5.55-5.65-9.63-12.61-9.63-20,0-1.95,0-9.45,0-9.45h4.16v7.12c0,8.25,3.64,14.55,8.74,19.51a41,41,0,0,0,3.21,2.8A74.88,74.88,0,0,0,238.93,48Z"/><path class="cls-1" d="M235.3,10.45s0,7.5,0,9.45c0,7.37-4.08,14.33-9.64,20-1,1-2.1,2-3.22,3a48.83,48.83,0,0,1-16.52,9.48V48a74.75,74.75,0,0,0,13.31-8.1q1.69-1.34,3.22-2.8c5.1-5,8.73-11.26,8.73-19.51V10.45Z"/><rect class="cls-1" x="220.32" y="10.45" width="4.16" height="9.05"/><path class="cls-1" d="M90.16,65.31,89.26,68H86.79L90.73,56.4h3.15L98,68H95.35l-.95-2.68Zm3.7-2.05c-.83-2.44-1.35-4-1.63-5h0c-.28,1.14-.86,3-1.52,5Z"/><path class="cls-1" d="M100.57,58.46H97.05V56.4h9.54v2.06h-3.51V68h-2.51Z"/><path class="cls-1" d="M108.15,56.4h2.51v4.52h4.66V56.4h2.51V68h-2.51V63h-4.66v5h-2.51Z"/><path class="cls-1" d="M128.59,63h-5.54v2.95h6.11l-.3,2h-8.25V56.4h8.22v2.06h-5.78v2.48h5.54Z"/><path class="cls-1" d="M131,56.4h4.8c2.46,0,4.13,1.39,4.13,3.59,0,2.52-1.91,3.67-4.19,3.67h-2.23V68H131Zm2.51,5.27h1.91c1.16,0,2-.45,2-1.63s-.86-1.64-1.93-1.64h-2Z"/><path class="cls-1" d="M141.78,56.4h2.51v4.52H149V56.4h2.51V68H149V63h-4.66v5h-2.51Z"/><path class="cls-1" d="M156.4,65.31,155.49,68H153L157,56.4h3.14L164.22,68h-2.63l-1-2.68Zm3.69-2.05c-.82-2.44-1.34-4-1.62-5h0c-.29,1.14-.87,3-1.52,5Z"/><path class="cls-1" d="M176.45,56.4V68H174V56.4Z"/><path class="cls-1" d="M179.23,68V56.4h3.11c1.45,2.6,4.12,7.3,4.65,8.56h0c-.13-1.21-.13-3.22-.13-5.12V56.4h2.27V68h-2.95c-1.24-2.26-4.21-7.65-4.78-9h0c.08,1,.11,3.39.11,5.47V68Z"/><path class="cls-1" d="M193.57,64.59c.26,1.17,1.1,1.68,2.44,1.68s1.91-.53,1.91-1.38-.56-1.35-2.54-1.81c-3.16-.74-3.94-1.89-3.94-3.45,0-2,1.52-3.4,4.26-3.4,3.08,0,4.3,1.66,4.47,3.35h-2.53c-.12-.71-.51-1.48-2-1.48-1,0-1.63.42-1.63,1.24s.5,1.13,2.37,1.57c3.37.79,4.11,2,4.11,3.68,0,2.11-1.6,3.57-4.67,3.57s-4.49-1.45-4.77-3.57Z"/><path class="cls-1" d="M204.76,58.46h-3.52V56.4h9.53v2.06h-3.5V68h-2.51Z"/><path class="cls-1" d="M214.78,63.35V68h-2.44V56.4h5.09c2.53,0,3.89,1.39,3.89,3.18a2.79,2.79,0,0,1-1.69,2.75c.58.21,1.44.81,1.44,2.88v.57a9.18,9.18,0,0,0,.17,2.21h-2.38a8.24,8.24,0,0,1-.24-2.6v-.17c0-1.27-.32-1.87-2.19-1.87Zm0-2h2.11c1.37,0,1.9-.52,1.9-1.49s-.62-1.47-1.84-1.47h-2.17Z"/><path class="cls-1" d="M225.83,56.4v6.91c0,2.22,1.14,2.88,2.39,2.88,1.44,0,2.34-.78,2.34-2.88V56.4h2.51v6.78c0,4-2.33,5-4.88,5s-4.87-1.06-4.87-4.93V56.4Z"/><path class="cls-1" d="M245.41,63.64c0-2,0-4.19.08-5.5h-.08c-.54,2.36-1.7,6.23-2.82,9.85h-2.13c-.84-3.17-2-7.57-2.55-9.88h-.08c.1,1.36.15,3.74.15,5.73V68h-2.29V56.4h3.73c.91,3,1.92,6.83,2.27,8.56h0c.28-1.53,1.55-5.59,2.52-8.56h3.59V68h-2.41Z"/><path class="cls-1" d="M258.59,63h-5.54v2.95h6.11l-.3,2h-8.25V56.4h8.22v2.06h-5.78v2.48h5.54Z"/><path class="cls-1" d="M261,68V56.4h3.11c1.45,2.6,4.12,7.3,4.65,8.56h0c-.13-1.21-.12-3.22-.12-5.12V56.4h2.27V68H268c-1.24-2.26-4.21-7.65-4.78-9h0c.08,1,.11,3.39.11,5.47V68Z"/><path class="cls-1" d="M276.15,58.46h-3.52V56.4h9.54v2.06h-3.51V68h-2.51Z"/><path class="cls-1" d="M285.64,64.59a2.15,2.15,0,0,0,2.44,1.68c1.34,0,1.91-.53,1.91-1.38s-.56-1.35-2.54-1.81c-3.15-.74-3.93-1.89-3.93-3.45,0-2,1.51-3.4,4.25-3.4,3.08,0,4.31,1.66,4.47,3.35h-2.52c-.13-.71-.52-1.48-2-1.48-1,0-1.63.42-1.63,1.24s.49,1.13,2.36,1.57c3.37.79,4.11,2,4.11,3.68,0,2.11-1.6,3.57-4.66,3.57s-4.5-1.45-4.77-3.57Z"/></g></g></svg>