<svg xmlns="http://www.w3.org/2000/svg" viewBox="0 0 205.76 155.35"><defs><style>.cls-1{fill:#fff;}</style></defs><title>资源 1</title><g id="图层_2" data-name="图层 2"><g id="图层_1-2" data-name="图层 1"><polygon class="cls-1" points="121.08 31.58 102.88 63.16 91.17 83.5 54.77 83.5 84.68 31.58 102.88 0 121.08 31.58"/><polygon class="cls-1" points="137.34 59.79 100.94 59.79 96.53 52.14 132.93 52.14 137.34 59.79"/><polygon class="cls-1" points="144.16 71.64 107.76 71.64 103.37 64 139.75 64 144.16 71.64"/><polygon class="cls-1" points="150.99 83.5 114.6 83.5 110.21 75.87 146.59 75.87 150.99 83.5"/><path class="cls-1" d="M174.49,110.85H163.74a4.54,4.54,0,0,1-4.53-4.54v-4.14a4.53,4.53,0,0,1,4.53-4.53h10.75a4.53,4.53,0,0,1,4.53,4.53v4.14A4.54,4.54,0,0,1,174.49,110.85Zm-10.75-9a.38.38,0,0,0-.38.37v4.14a.38.38,0,0,0,.38.38h10.75a.38.38,0,0,0,.38-.38v-4.14a.38.38,0,0,0-.38-.37Z"/><path class="cls-1" d="M201.22,110.85H190.47a4.54,4.54,0,0,1-4.53-4.54v-4.14a4.53,4.53,0,0,1,4.53-4.53h10.75a4.54,4.54,0,0,1,4.54,4.53v4.14A4.55,4.55,0,0,1,201.22,110.85Zm-10.75-9a.38.38,0,0,0-.37.37v4.14a.38.38,0,0,0,.37.38h10.75a.38.38,0,0,0,.38-.38v-4.14a.38.38,0,0,0-.38-.37Z"/><path class="cls-1" d="M174.49,139.85H163.74a4.53,4.53,0,0,1-4.53-4.53v-4.14a4.53,4.53,0,0,1,4.53-4.53h10.75a4.53,4.53,0,0,1,4.53,4.53v4.14A4.53,4.53,0,0,1,174.49,139.85Zm-10.75-9a.38.38,0,0,0-.38.38v4.14a.38.38,0,0,0,.38.38h10.75a.38.38,0,0,0,.38-.38v-4.14a.38.38,0,0,0-.38-.38Z"/><path class="cls-1" d="M201.22,139.85H190.47a4.53,4.53,0,0,1-4.53-4.53v-4.14a4.53,4.53,0,0,1,4.53-4.53h10.75a4.54,4.54,0,0,1,4.54,4.53v4.14A4.54,4.54,0,0,1,201.22,139.85Zm-10.75-9a.38.38,0,0,0-.37.38v4.14a.38.38,0,0,0,.37.38h10.75a.38.38,0,0,0,.38-.38v-4.14a.38.38,0,0,0-.38-.38Z"/><path class="cls-1" d="M200.44,118H159.21v-4.16h41.23c.68,0,1.16-.44,1.16-.83v-1h4.16v1A5.17,5.17,0,0,1,200.44,118Z"/><path class="cls-1" d="M169.63,125H159.21v-4.16h10.42c6,0,10.77-4,10.77-9v-1.25h4.16v1.25C184.56,119.19,178,125,169.63,125Z"/><path class="cls-1" d="M205.76,125H195.33c-8.37,0-14.93-5.78-14.93-13.15v-1.25h4.16v1.25c0,5,4.73,9,10.77,9h10.43Z"/><rect class="cls-1" x="110.91" y="109.78" width="4.16" height="30.07"/><path class="cls-1" d="M117.37,99.64a19.78,19.78,0,0,1-6.45,15.46,19.69,19.69,0,0,1-2.31,1.82l-1.71,1.17v-5a15.8,15.8,0,0,0,6.31-13.25V97.64h4.07Z"/><path class="cls-1" d="M93.46,104.1H54.73V99.94H93.46a.46.46,0,0,0,.35-.13V97.73L98,97.64v2.08A4.41,4.41,0,0,1,93.46,104.1Z"/><rect class="cls-1" x="53.57" y="113.15" width="45.55" height="4.16"/><rect class="cls-1" x="74.27" y="99.94" width="4.16" height="39.91"/><path class="cls-1" d="M53.57,135.7v4.15a11,11,0,0,0,8.61-10.72v-8.34H58v8.34A7.07,7.07,0,0,1,53.57,135.7Z"/><path class="cls-1" d="M99.12,135.7v4.15a11,11,0,0,1-8.61-10.72v-8.34h4.16v8.34A7.07,7.07,0,0,0,99.12,135.7Z"/><rect class="cls-1" x="22.01" y="97.6" width="4.16" height="6.46"/><path class="cls-1" d="M46.55,108.4H42.39v-3.06a1.52,1.52,0,0,0-1.65-1.28H5.81a1.53,1.53,0,0,0-1.65,1.28v3.06H0v-3.06a5.63,5.63,0,0,1,5.81-5.43H40.74a5.63,5.63,0,0,1,5.81,5.43Z"/><rect class="cls-1" y="113.12" width="46.55" height="4.16"/><path class="cls-1" d="M42.62,135.74h3.93v4.15h-3.2C25,139.89,4.86,129.22,4.86,114v-3H9v3C9,125.43,27.09,135.74,42.62,135.74Z"/><path class="cls-1" d="M3.93,135.74H0v4.15H3.2c18.39,0,38.49-10.67,38.49-25.9v-3H37.54v3C37.54,125.43,19.46,135.74,3.93,135.74Z"/><path class="cls-1" d="M152.13,135.17v4.38a49.25,49.25,0,0,1-16.53-9.49c-1.12-.95-2.2-1.95-3.21-3h0c-5.55-5.65-9.63-12.61-9.63-20,0-2,0-9.45,0-9.45h4.16v7.12c0,8.25,3.64,14.55,8.74,19.51a41,41,0,0,0,3.21,2.8A74.88,74.88,0,0,0,152.13,135.17Z"/><path class="cls-1" d="M148.5,97.64s0,7.5,0,9.45c0,7.37-4.08,14.33-9.64,20-1,1-2.1,2.05-3.22,3a48.83,48.83,0,0,1-16.52,9.48v-4.37a74.75,74.75,0,0,0,13.31-8.1q1.7-1.33,3.22-2.8c5.1-5,8.73-11.26,8.73-19.51V97.64Z"/><rect class="cls-1" x="133.53" y="97.64" width="4.16" height="9.05"/><path class="cls-1" d="M3.37,152.51l-.91,2.67H0l3.94-11.59H7.08l4.11,11.59H8.55l-1-2.67Zm3.69-2.06c-.82-2.44-1.35-4-1.62-5h0c-.29,1.15-.87,3-1.53,5Z"/><path class="cls-1" d="M13.78,145.65H10.26v-2.06H19.8v2.06H16.29v9.53H13.78Z"/><path class="cls-1" d="M21.36,143.59h2.51v4.52h4.66v-4.52H31v11.59h-2.5v-5H23.87v5H21.36Z"/><path class="cls-1" d="M41.79,150.19H36.25v2.94h6.12l-.3,2.05H33.82V143.59H42v2.06H36.25v2.48h5.54Z"/><path class="cls-1" d="M44.17,143.59H49c2.47,0,4.14,1.39,4.14,3.59,0,2.52-1.91,3.68-4.2,3.68H46.68v4.32H44.17Zm2.51,5.27h1.91c1.16,0,2-.45,2-1.63s-.87-1.64-1.93-1.64h-2Z"/><path class="cls-1" d="M55,143.59H57.5v4.52h4.66v-4.52h2.5v11.59h-2.5v-5H57.5v5H55Z"/><path class="cls-1" d="M69.61,152.51l-.91,2.67H66.24l3.93-11.59h3.15l4.11,11.59H74.79l-1-2.67Zm3.69-2.06c-.82-2.44-1.35-4-1.63-5h0c-.29,1.15-.87,3-1.53,5Z"/><path class="cls-1" d="M89.66,143.59v11.59H87.15V143.59Z"/><path class="cls-1" d="M92.44,155.18V143.59h3.11c1.44,2.61,4.12,7.3,4.65,8.56h0c-.13-1.21-.12-3.22-.12-5.12v-3.44h2.27v11.59H99.43c-1.25-2.26-4.21-7.65-4.78-9h0c.08,1,.11,3.39.11,5.47v3.52Z"/><path class="cls-1" d="M106.78,151.79c.26,1.16,1.09,1.67,2.44,1.67s1.91-.53,1.91-1.38-.56-1.35-2.54-1.81c-3.16-.74-3.94-1.89-3.94-3.45,0-2,1.51-3.39,4.26-3.39,3.07,0,4.3,1.65,4.46,3.35h-2.52c-.12-.72-.52-1.49-2-1.49-1,0-1.63.42-1.63,1.24s.49,1.13,2.36,1.57c3.37.79,4.11,2.05,4.11,3.68,0,2.12-1.6,3.57-4.66,3.57s-4.49-1.45-4.77-3.56Z"/><path class="cls-1" d="M118,145.65h-3.52v-2.06H124v2.06h-3.51v9.53H118Z"/><path class="cls-1" d="M128,150.55v4.63h-2.45V143.59h5.09c2.53,0,3.89,1.4,3.89,3.19a2.78,2.78,0,0,1-1.68,2.74c.57.21,1.44.81,1.44,2.88V153a9.78,9.78,0,0,0,.16,2.21h-2.37a8.24,8.24,0,0,1-.24-2.6v-.17c0-1.27-.32-1.86-2.19-1.86Zm0-2h2.1c1.37,0,1.9-.52,1.9-1.49s-.61-1.47-1.84-1.47H128Z"/><path class="cls-1" d="M139,143.59v6.91c0,2.22,1.14,2.88,2.39,2.88,1.43,0,2.33-.78,2.33-2.88v-6.91h2.51v6.79c0,4-2.32,5-4.87,5s-4.87-1.06-4.87-4.93v-6.83Z"/><path class="cls-1" d="M158.61,150.84c0-2,0-4.2.09-5.51h-.08c-.55,2.37-1.71,6.23-2.82,9.85h-2.13c-.85-3.17-2-7.56-2.55-9.88H151c.1,1.36.15,3.74.15,5.73v4.15H148.9V143.59h3.73c.9,3,1.92,6.83,2.27,8.56h0c.29-1.52,1.56-5.59,2.53-8.56H161v11.59h-2.42Z"/><path class="cls-1" d="M171.79,150.19h-5.54v2.94h6.12l-.3,2.05h-8.25V143.59H172v2.06h-5.79v2.48h5.54Z"/><path class="cls-1" d="M174.17,155.18V143.59h3.1c1.45,2.61,4.13,7.3,4.66,8.56h0c-.13-1.21-.13-3.22-.13-5.12v-3.44h2.27v11.59h-2.94c-1.25-2.26-4.21-7.65-4.79-9h0c.09,1,.11,3.39.11,5.47v3.52Z"/><path class="cls-1" d="M189.35,145.65h-3.52v-2.06h9.54v2.06h-3.51v9.53h-2.51Z"/><path class="cls-1" d="M198.85,151.79c.26,1.16,1.1,1.67,2.44,1.67s1.91-.53,1.91-1.38-.56-1.35-2.54-1.81c-3.16-.74-3.94-1.89-3.94-3.45,0-2,1.52-3.39,4.26-3.39,3.08,0,4.3,1.65,4.47,3.35h-2.53c-.12-.72-.51-1.49-2-1.49-1,0-1.63.42-1.63,1.24s.5,1.13,2.37,1.57c3.37.79,4.11,2.05,4.11,3.68,0,2.12-1.6,3.57-4.67,3.57s-4.49-1.45-4.77-3.56Z"/></g></g></svg>
